<?xml version="1.0" encoding="utf-8" ?>
<svg xmlns="http://www.w3.org/2000/svg" xmlns:xlink="http://www.w3.org/1999/xlink" width="78" height="120">
	<defs>
		<clipPath id="clip_0">
			<rect x="-690" y="-519" width="1920" height="1080" clip-rule="evenodd"/>
		</clipPath>
	</defs>
	<g clip-path="url(#clip_0)">
		<path fill="rgb(217,231,235)" stroke="none" transform="translate(0.5 0.5)" d="M76.37 119L1 119C0.448 119 0 118.552 0 118L0 20.205L11.869 8.765L20.767 0L77.37 0L77.37 118C77.37 118.552 76.922 119 76.37 119"/>
	</g>
	<defs>
		<clipPath id="clip_1">
			<rect x="-690" y="-519" width="1920" height="1080" clip-rule="evenodd"/>
		</clipPath>
	</defs>
	<g clip-path="url(#clip_1)">
		<path fill="rgb(244,248,249)" stroke="none" transform="translate(0.5 0.5)" d="M20.767 0L27.763 0L76.37 0C76.922 0 77.37 0.448 77.37 1L77.37 115.186C77.37 115.739 76.922 116.186 76.37 116.186L1 116.186C0.448 116.186 0 115.739 0 115.186L0 29.349L0 24.695L0 20.205L19.767 20.206C20.319 20.206 20.767 19.758 20.767 19.206L20.767 6.07"/>
	</g>
	<defs>
		<clipPath id="clip_2">
			<rect x="-690" y="-519" width="1920" height="1080" clip-rule="evenodd"/>
		</clipPath>
	</defs>
	<g clip-path="url(#clip_2)">
		<path fill="none" stroke="rgb(147,147,147)" stroke-width="1" stroke-miterlimit="4" transform="translate(0.5 0.5)" d="M20.767 0L27.763 0L76.37 0C76.922 0 77.37 0.448 77.37 1L77.37 115.186C77.37 115.739 76.922 116.186 76.37 116.186L1 116.186C0.448 116.186 0 115.739 0 115.186L0 29.349L0 24.695L0 20.205L19.767 20.206C20.319 20.206 20.767 19.758 20.767 19.206L20.767 6.07"/>
	</g>
	<defs>
		<clipPath id="clip_3">
			<rect x="-690" y="-519" width="1920" height="1080" clip-rule="evenodd"/>
		</clipPath>
	</defs>
	<g clip-path="url(#clip_3)">
		<path fill="rgb(255,255,255)" stroke="none" transform="translate(17.0596 41.9066)" d="M0 0L44.25 0"/>
	</g>
	<defs>
		<clipPath id="clip_4">
			<rect x="-690" y="-519" width="1920" height="1080" clip-rule="evenodd"/>
		</clipPath>
	</defs>
	<g clip-path="url(#clip_4)">
		<path fill="none" stroke="rgb(217,231,235)" stroke-width="1" stroke-miterlimit="4" transform="translate(17.0596 41.9066)" d="M0 0L44.25 0"/>
	</g>
	<defs>
		<clipPath id="clip_5">
			<rect x="-690" y="-519" width="1920" height="1080" clip-rule="evenodd"/>
		</clipPath>
	</defs>
	<g clip-path="url(#clip_5)">
		<path fill="rgb(255,255,255)" stroke="none" transform="translate(17.0596 53.6187)" d="M0 0L44.25 0"/>
	</g>
	<defs>
		<clipPath id="clip_6">
			<rect x="-690" y="-519" width="1920" height="1080" clip-rule="evenodd"/>
		</clipPath>
	</defs>
	<g clip-path="url(#clip_6)">
		<path fill="none" stroke="rgb(217,231,235)" stroke-width="1" stroke-miterlimit="4" transform="translate(17.0596 53.6187)" d="M0 0L44.25 0"/>
	</g>
	<defs>
		<clipPath id="clip_7">
			<rect x="-690" y="-519" width="1920" height="1080" clip-rule="evenodd"/>
		</clipPath>
	</defs>
	<g clip-path="url(#clip_7)">
		<path fill="rgb(255,255,255)" stroke="none" transform="translate(17.0596 65.3306)" d="M0 0L44.25 0"/>
	</g>
	<defs>
		<clipPath id="clip_8">
			<rect x="-690" y="-519" width="1920" height="1080" clip-rule="evenodd"/>
		</clipPath>
	</defs>
	<g clip-path="url(#clip_8)">
		<path fill="none" stroke="rgb(217,231,235)" stroke-width="1" stroke-miterlimit="4" transform="translate(17.0596 65.3306)" d="M0 0L44.25 0"/>
	</g>
	<defs>
		<clipPath id="clip_9">
			<rect x="-690" y="-519" width="1920" height="1080" clip-rule="evenodd"/>
		</clipPath>
	</defs>
	<g clip-path="url(#clip_9)">
		<path fill="rgb(255,255,255)" stroke="none" transform="translate(17.0596 77.0426)" d="M0 0L44.25 0"/>
	</g>
	<defs>
		<clipPath id="clip_10">
			<rect x="-690" y="-519" width="1920" height="1080" clip-rule="evenodd"/>
		</clipPath>
	</defs>
	<g clip-path="url(#clip_10)">
		<path fill="none" stroke="rgb(217,231,235)" stroke-width="1" stroke-miterlimit="4" transform="translate(17.0596 77.0426)" d="M0 0L44.25 0"/>
	</g>
	<defs>
		<clipPath id="clip_11">
			<rect x="-690" y="-519" width="1920" height="1080" clip-rule="evenodd"/>
		</clipPath>
	</defs>
	<g clip-path="url(#clip_11)">
		<path fill="rgb(255,255,255)" stroke="none" transform="translate(30.0234 25.7903)" d="M0 0L18.324 0"/>
	</g>
	<defs>
		<clipPath id="clip_12">
			<rect x="-690" y="-519" width="1920" height="1080" clip-rule="evenodd"/>
		</clipPath>
	</defs>
	<g clip-path="url(#clip_12)">
		<path fill="none" stroke="rgb(217,231,235)" stroke-width="1" stroke-miterlimit="4" transform="translate(30.0234 25.7903)" d="M0 0L18.324 0"/>
	</g>
	<defs>
		<clipPath id="clip_13">
			<rect x="-690" y="-519" width="1920" height="1080" clip-rule="evenodd"/>
		</clipPath>
	</defs>
	<g clip-path="url(#clip_13)">
		<path fill="rgb(244,248,249)" stroke="none" transform="translate(0.5 0.500244)" d="M0 20.205L20.767 0"/>
	</g>
	<defs>
		<clipPath id="clip_14">
			<rect x="-690" y="-519" width="1920" height="1080" clip-rule="evenodd"/>
		</clipPath>
	</defs>
	<g clip-path="url(#clip_14)">
		<path fill="none" stroke="rgb(147,147,147)" stroke-width="1" stroke-miterlimit="4" transform="translate(0.5 0.500244)" d="M0 20.205L20.767 0"/>
	</g>




	<defs>
		<clipPath id="clip_21">
			<rect x="-690" y="-519" width="1920" height="1080" clip-rule="evenodd"/>
		</clipPath>
	</defs>
	<g clip-path="url(#clip_21)">
		<path fill="rgb(217,231,235)" stroke="none" transform="translate(1.05371 21.2159)" d="M0 1.865L19.792 1.865L19.792 0L0 0L0 1.865Z"/>
	</g>
</svg>
